<?xml version="1.0" standalone="no"?>
<!DOCTYPE svg PUBLIC "-//W3C//DTD SVG 20010904//EN"
 "http://www.w3.org/TR/2001/REC-SVG-20010904/DTD/svg10.dtd">
<svg version="1.0" xmlns="http://www.w3.org/2000/svg"
 width="347.000000pt" height="347.000000pt" viewBox="0 0 347.000000 347.000000"
 preserveAspectRatio="xMidYMid meet">
<metadata>
Created by potrace 1.15, written by Peter Selinger 2001-2017
</metadata>
<g transform="translate(0.000000,347.000000) scale(0.100000,-0.100000)"
fill="#000000" stroke="none">
<path d="M1620 2405 c-8 -2 -67 -11 -130 -20 -158 -24 -234 -44 -455 -122 -39
-14 -248 -116 -310 -151 -63 -36 -253 -167 -325 -226 -105 -84 -340 -320 -340
-341 0 -11 26 7 83 57 131 119 435 348 461 348 3 0 22 11 42 25 44 30 280 147
344 170 296 109 455 140 725 140 201 0 260 -7 455 -52 79 -18 241 -72 254 -84
6 -5 16 -9 23 -9 14 0 179 -79 235 -113 20 -12 65 -39 100 -60 78 -47 247
-181 348 -276 91 -86 166 -127 207 -114 36 12 73 67 73 107 0 17 -9 45 -19 62
-28 45 -164 148 -386 289 -86 55 -407 215 -460 228 -11 3 -58 19 -105 35 -207
71 -400 104 -630 108 -96 2 -182 1 -190 -1z"/>
<path d="M1490 2221 c-100 -11 -334 -69 -425 -106 -116 -48 -153 -65 -260
-117 -66 -33 -140 -73 -165 -89 -25 -16 -52 -32 -60 -36 -84 -40 -451 -333
-417 -333 4 0 60 35 125 78 228 152 439 268 642 351 30 13 70 29 88 37 18 8
39 14 48 14 8 0 29 7 47 16 31 16 32 16 16 -2 -52 -61 -109 -227 -109 -318 0
-56 32 -181 62 -241 51 -100 167 -214 275 -269 141 -71 348 -88 498 -40 43 14
106 40 139 57 60 32 216 174 216 197 0 7 8 24 18 38 69 100 87 306 38 435 -14
38 -39 89 -56 114 -17 24 -27 43 -23 41 5 -2 19 -9 33 -15 85 -36 150 -69 188
-94 24 -16 45 -29 48 -29 3 0 47 -34 98 -75 164 -131 256 -246 256 -320 0 -40
-30 -109 -63 -143 -65 -68 -336 -236 -446 -277 -20 -7 -66 -24 -103 -38 -37
-14 -80 -28 -95 -31 -15 -2 -57 -11 -93 -20 -224 -54 -563 -53 -785 1 -33 8
-71 16 -85 19 -78 13 -361 104 -430 138 -14 7 -45 22 -70 33 -145 66 -315 159
-403 221 -27 18 -52 30 -55 27 -7 -7 27 -38 93 -84 22 -15 63 -43 90 -62 106
-74 413 -239 445 -239 6 0 25 -7 43 -17 18 -9 46 -20 62 -24 17 -4 75 -21 130
-37 202 -59 317 -74 565 -74 236 0 350 13 545 63 217 56 287 84 578 232 21 11
55 39 75 63 20 24 42 44 50 44 8 0 32 -15 54 -34 82 -71 123 -76 204 -26 189
117 -38 423 -561 756 -105 66 -298 143 -480 189 -88 23 -125 26 -305 30 -113
2 -239 0 -280 -4z m230 -367 c48 -19 80 -67 80 -118 0 -75 -91 -135 -176 -116
-98 22 -133 141 -61 208 45 43 94 51 157 26z"/>
</g>
</svg>
